<svg width="222" height="56" viewBox="0 0 222 56" fill="none" xmlns="http://www.w3.org/2000/svg">
<rect x="1.5" y="1.5" width="219" height="53" rx="8.5" stroke="white" stroke-width="3"/>
<path d="M194.667 16C196.965 16 199.17 16.9131 200.795 18.5384C202.42 20.1637 203.333 22.3681 203.333 24.6667C203.333 26.8133 202.547 28.7867 201.253 30.3067L201.613 30.6667H202.667L209.333 37.3333L207.333 39.3333L200.667 32.6667V31.6133L200.307 31.2533C198.734 32.5957 196.734 33.3332 194.667 33.3333C192.368 33.3333 190.164 32.4202 188.538 30.7949C186.913 29.1696 186 26.9652 186 24.6667C186 22.3681 186.913 20.1637 188.538 18.5384C190.164 16.9131 192.368 16 194.667 16ZM194.667 18.6667C191.333 18.6667 188.667 21.3333 188.667 24.6667C188.667 28 191.333 30.6667 194.667 30.6667C198 30.6667 200.667 28 200.667 24.6667C200.667 21.3333 198 18.6667 194.667 18.6667Z" fill="white"/>
</svg>
